inDegrees=yes
name=ik_data_2024_11_06_17_43
DataType=double
version=3
OpenSimVersion=4.5.1
endheader
time	pelvis_tilt	pelvis_list	pelvis_rotation	pelvis_tx	pelvis_ty	pelvis_tz	hip_flexion_r	hip_adduction_r	hip_rotation_r	knee_angle_r	knee_angle_r_beta	ankle_angle_r	subtalar_angle_r	mtp_angle_r	hip_flexion_l	hip_adduction_l	hip_rotation_l	knee_angle_l	knee_angle_l_beta	ankle_angle_l	subtalar_angle_l	mtp_angle_l	lumbar_extension	lumbar_bending	lumbar_rotation	arm_flex_r	arm_add_r	arm_rot_r	elbow_flex_r	pro_sup_r	wrist_flex_r	wrist_dev_r	arm_flex_l	arm_add_l	arm_rot_l	elbow_flex_l	pro_sup_l	wrist_flex_l	wrist_dev_l
0	0.02085384264646706	-0.009999680295083311	145.4625610954857	0	0.9399999999999999	0	0.2895685034926235	-0.00595143155491361	-0.07482308701613319	0.5137375785760508	0.00896641223737517	-1.697656316232151	0	0	0.2900937233751661	-0.01357821793154274	-0.07699766813083103	0.5132593661239574	0.008958065855562103	-1.697656316232151	0	0	0	0	0	0	-1.114572325669013	0	15.86448272145491	15.78160848291443	0	0	0	-1.114572325669013	0	15.86448272145491	15.78160848291443	0	0
0.12	0.02428324651384397	-0.009815044102947265	145.4637788281603	0	0.9399999999999999	0	0.2237158671417597	-0.07446969626597773	-0.07111138964875953	0.5164303454986263	0.009013409886162907	-1.700341859496943	0	0	0.2916694910379398	-0.01075074936684604	-0.07489699870724761	0.5138082641993238	0.008967645934235106	-1.700341859496943	0	0	0	0	0	0	-1.115876677302357	0	15.8916817118948	15.80593117244947	0	0	0	-1.115876677302357	0	15.8916817118948	15.80593117244947	0	0
0.256	0.03050021189546009	-0.01494568335119164	145.4658699798551	0	0.9399999999999999	0	0.1353650000065321	-0.1870714399927194	-0.06251401402542535	0.4553892311496491	0.007948041461686898	-1.702993072247436	0	0	0.299377034443273	-0.009036206836726198	-0.07128454541112614	0.5071840379926864	0.00885203137653239	-1.702993072247436	0	0	0	0	0	0	-1.117144893038477	0	15.91859311446601	15.83002934790818	0	0	0	-1.117144893038477	0	15.91859311446601	15.83002934790818	0	0
0.391	0.02693265152063935	-0.01606505414028792	145.464490060811	0	0.9399999999999999	0	0.1103278320909908	-0.2422119817411197	-0.04518005681683805	0.4352382590667949	0.007596340651363633	-1.705972439766082	0	0	0.3028239679308584	-0.01567587263138084	-0.06629236662232597	0.5078330663294455	0.008863359057947579	-1.705972439766082	0	0	0	0	0	0	-1.118607003661117	0	15.94862184256929	15.85684437632538	0	0	0	-1.118607003661117	0	15.94862184256929	15.85684437632538	0	0
0.51	0.02761140968256359	-0.01604540214646856	145.466684895371	0	0.9399999999999999	0	0.1203494054439203	-0.254718098412073	-0.04131703072385084	0.4201168456213314	0.007332422199184955	-1.708259467953336	0	0	0.2971965440175544	-0.01184406509265337	-0.07051673043371214	0.5083670525648742	0.00887267887591614	-1.708259467953336	0	0	0	0	0	0	-1.119723215649977	0	15.97168480388997	15.87745276042096	0	0	0	-1.119723215649977	0	15.97168480388997	15.87745276042096	0	0
0.645	0.03110955335903068	-0.01885552668151718	145.4673796556247	0	0.9399999999999999	0	0.08338174048134839	-0.324353280146409	-0.05018816299899732	0.3720840761117871	0.006494092222391865	-1.711184168639571	0	0	0.3067118965697701	-0.01634844827284034	-0.07070580753014584	0.5067488893886709	0.008844436600656862	-1.711184168639571	0	0	0	0	0	0	-1.12115109112529	0	16.00114848869304	15.9037780099555	0	0	0	-1.12115109112529	0	16.00114848869304	15.9037780099555	0	0
0.78	0.04260596651861796	-0.007852472683718664	145.4660141649528	0	0.9399999999999999	0	0.07872676185789687	-0.4191094395072971	-0.06101360736662051	0.366275730297974	0.006392717463846397	-1.712932664607351	0	0	0.3121087422810743	-0.01905033368135153	-0.07053854259473853	0.5112239528424904	0.008922541192161682	-1.712932664607351	0	0	0	0	0	0	-1.122005266191783	0	16.01874897247416	15.91950253177636	0	0	0	-1.122005266191783	0	16.01874897247416	15.91950253177636	0	0
0.901	0.03563054793418063	-0.003668497197723599	145.4678715750377	0	0.9399999999999999	0	0.1274876405650263	-0.5078417248805066	-0.05709657637292423	0.3596014035828822	0.006276228487314227	-1.714823369087066	0	0	0.3074954705509154	-0.0253987594517439	-0.0684837067255438	0.5093361418012712	0.008889592673836905	-1.714823369087066	0	0	0	0	0	0	-1.122920684866413	0	16.03781353462716	15.93655435629896	0	0	0	-1.122920684866413	0	16.03781353462716	15.93655435629896	0	0
1.035	0.004900598282377793	-0.005045161036713254	145.4642225652649	0	0.9399999999999999	0	0.04892234475336397	-0.6286940241951421	-0.05410110427785563	0.3757333618297965	0.006557784273517135	-1.770387060206741	0	0	0.2718748629391221	-0.00891126426555866	-0.0809886505167402	0.5180034136080968	0.009040865104031287	-1.770387060206741	0	0	0	0	0	0	-1.151220240966313	0	16.57913429417802	16.41850834263858	0	0	0	-1.151220240966313	0	16.57913429417802	16.41850834263858	0	0
1.171	0.02467942143603384	-0.0164598903648834	145.466581913939	0	0.9399999999999999	0	0.04093503166997536	-0.643263368397118	-0.05143251226324965	0.3470341376452682	0.006056888318729131	-1.772515629723512	0	0	0.2993370023139202	-0.01191297128405281	-0.07060563965428375	0.5069248161933506	0.008847507102641036	-1.772515629723512	0	0	0	0	0	0	-1.152290003641782	0	16.60007448296592	16.43716216286539	0	0	0	-1.152290003641782	0	16.60007448296592	16.43716216286539	0	0
1.29	0.003932525579459956	-0.00542171042140225	145.4611247975633	0	0.9399999999999999	0	0.06022290443736143	-0.634943398510353	-0.04863603189816468	0.3392072818113632	0.005920283914348563	-1.798372794514471	0	0	0.2701695760605889	-0.006622940279996087	-0.07891754958469201	0.5145720354622969	0.008980976257506103	-1.798372794514471	0	0	0	0	0	0	-1.165050169906273	0	16.84934472850923	16.65973836373998	0	0	0	-1.165050169906273	0	16.84934472850923	16.65973836373998	0	0
1.425	0.01710441750785076	-0.01073739669737836	145.4604521282873	0	0.9399999999999999	0	0.1189047974524197	-0.63324793173103	-0.06608035030215113	0.3168315200561529	0.005529753199078318	-1.824167444803902	0	0	0.2842119040591005	-0.008862079092275776	-0.0810894784943806	0.5083510657795193	0.008872399853874885	-1.824167444803902	0	0	0	0	0	0	-1.177782908542889	0	17.09754631792272	16.88131612426134	0	0	0	-1.177782908542889	0	17.09754631792272	16.88131612426134	0	0
1.56	0.01733536397015316	-0.02581535541753953	145.4645851529989	0	0.9399999999999999	0	0.1240114135904767	-0.5585702882722261	-0.0620735549027934	0.3707254229338329	0.006470379251043881	-1.826067647941596	0	0	0.3034666957916783	-0.001405757692605113	-0.07201456747881688	0.5113516882753141	0.008924770596035915	-1.826067647941596	0	0	0	0	0	0	-1.178757090169614	0	17.11591222260894	16.89763189873263	0	0	0	-1.178757090169614	0	17.11591222260894	16.89763189873263	0	0
1.68	0.02946028785031441	-0.02010977627795337	145.4672403127903	0	0.9399999999999999	0	0.1381657229277944	-0.5902856280750066	-0.05864791694910382	0.3563791016259381	0.006219988708672096	-1.827979861404044	0	0	0.3052640327447549	-0.009631728108454474	-0.06950544987033985	0.5084253637659645	0.008873696598365956	-1.827979861404044	0	0	0	0	0	0	-1.179720409020243	0	17.13442860633129	16.9141102718693	0	0	0	-1.179720409020243	0	17.13442860633129	16.9141102718693	0	0
1.815	0.02468630717259703	-0.01706442660840369	145.4679441767092	0	0.9399999999999999	0	0.1134666249352524	-0.5975943223338587	-0.04020824647855922	0.3425309123674876	0.005978292210672823	-1.830797444924022	0	0	0.2983177066901267	-0.01033677382694371	-0.07123129406873259	0.5115119441454367	0.008927567588615203	-1.830797444924022	0	0	0	0	0	0	-1.181133486014325	0	17.16172545645973	16.93842727243064	0	0	0	-1.181133486014325	0	17.16172545645973	16.93842727243064	0	0
1.95	0.02850049730876388	-0.03054134564138822	145.4672941587359	0	0.9399999999999999	0	0.07871289979884934	-0.5376632451007372	-0.04197858060120357	0.3498376720115953	0.006105819224114351	-1.832670452212462	0	0	0.3174361499743152	-0.005754496551342974	-0.06679695187935435	0.5102228610774541	0.008905068844747196	-1.832670452212462	0	0	0	0	0	0	-1.182102482677415	0	17.17977381294586	16.95444469330439	0	0	0	-1.182102482677415	0	17.17977381294586	16.95444469330439	0	0
2.07	0.03350955057276241	-0.02504206882494731	145.4682526267698	0	0.9399999999999999	0	0.05803543871146826	-0.5516502870986105	-0.04565917754434753	0.3276833824604096	0.005719153928005986	-1.834654200136512	0	0	0.3181400315033986	-0.009367294696868471	-0.06815888215153085	0.5087298909950005	0.008879011601174611	-1.834654200136512	0	0	0	0	0	0	-1.18309804838079	0	17.19896580756625	16.97153759303551	0	0	0	-1.18309804838079	0	17.19896580756625	16.97153759303551	0	0
2.205	0.0402741081561645	-0.02791087545848333	145.4642978831835	0	0.9399999999999999	0	0.08151153601429664	-0.5636742071035681	-0.02922373823157984	0.3660985567432357	0.006389625201968751	-1.872688955463182	0	0	0.3194963091693941	-0.008147803193635157	-0.08025856472088225	0.51276437845064	0.00894942669090593	-1.872688955463182	0	0	0	0	0	0	-1.202861116755076	0	17.5554328023091	17.2876765560049	0	0	0	-1.202861116755076	0	17.5554328023091	17.2876765560049	0	0
2.341	0.01928476054802002	-0.01328067927179425	145.4664634834808	0	0.9399999999999999	0	0.04812147216681845	-0.5646701189137061	-0.01982009234409033	0.3905235186020674	0.006815921206079398	-1.876273658291301	0	0	0.2880006564991197	-0.0104746843184416	-0.07192280486565274	0.5130925289770387	0.008955153998033738	-1.876273658291301	0	0	0	0	0	0	-1.204683820511839	0	17.5896997531969	17.31814703802275	0	0	0	-1.204683820511839	0	17.5896997531969	17.31814703802275	0	0
2.46	0.000975814596196662	-0.003606020121034919	145.4615757489094	0	0.9399999999999999	0	-0.06063121919950476	-0.6771571149425184	-0.004895308874543206	0.3311831773165264	0.005780236871389585	-1.907419731549536	0	0	0.2702240906319008	-0.01012874938142497	-0.06785394478194982	0.5143130378741081	0.008976455896837484	-1.907419731549536	0	0	0	0	0	0	-1.220521396438673	0	17.88302719214795	17.57893106895596	0	0	0	-1.220521396438673	0	17.88302719214795	17.57893106895596	0	0
2.595	0.04258489227203242	-0.03311860185440758	145.4631824776879	0	0.9399999999999999	0	0.2951314285501441	-0.6630995918274433	-0.1039400602113881	0.9732309920109349	0.01698608519304144	-1.962411750459514	0	0	0.6423894570805897	-0.01887426092285972	-0.1708767553797606	1.125368578376141	0.01964138699115153	-1.962411750459514	0	0	0	0	0	0	-1.255070324391542	0	18.3862908818085	18.01307327535166	0	0	0	-1.255070324391542	0	18.3862908818085	18.01307327535166	0	0
